# xmcd CD database file
#
# Track frame offsets:
#	150
#	16084
#	31698
#	51241
#	64347
#	82747
#	99754
#	113585
#	130077
#	146973
#	159341
#	173520
#	190151
#	208774
#	227355
#	243582
#	259823
#	271564
#	286843
#	300172
#
# Disc length: 4212 seconds
#
# Revision: 0
# Processed by: cddbd v1.5.1PL0 Copyright (c) Steve Scherf et al.
# Submitted via: CDex 1.51
#
DISCID=f3107214
DTITLE=Kenny Rogers - All The Hits and All New Love Songs
DYEAR=1900
DGENRE=Country
TTITLE0=Lucille
TTITLE1=The Gambler
TTITLE2=Coward Of The Country
TTITLE3=Ruby Don't Take Your Love To Town
TTITLE4=Islands In The Stream
TTITLE5=Something's Buring
TTITLE6=Daytime Friends
TTITLE7=Lady
TTITLE8=We've Got Tonight
TTITLE9=Rueben James
TTITLE10=Love The World Away
TTITLE11=Desperado
TTITLE12=Sweet Music Man
TTITLE13=She Bellieves In Me
TTITLE14=You Decorated My Life
TTITLE15=Don't Fall In Love With A Dreamer
TTITLE16=Blase Of Glory
TTITLE17=I Don't Need You
TTITLE18=Evertime Tow Fools Collide
TTITLE19=Green Green Grass Of Home
EXTD=
EXTT0=
EXTT1=
EXTT2=
EXTT3=
EXTT4=
EXTT5=
EXTT6=
EXTT7=
EXTT8=
EXTT9=
EXTT10=
EXTT11=
EXTT12=
EXTT13=
EXTT14=
EXTT15=
EXTT16=
EXTT17=
EXTT18=
EXTT19=
PLAYORDER=
